<svg width="16" height="16" viewBox="0 0 16 16" fill="none" xmlns="http://www.w3.org/2000/svg">
<circle cx="8" cy="8" r="7.5" stroke="#A5A5A5"/>
<path d="M5.904 5.83V6.388H4.134V7.618H5.514V8.176H4.134V10H3.45V5.83H5.904ZM9.45389 7.072C9.45389 7.284 9.40389 7.484 9.30389 7.672C9.20389 7.86 9.04389 8.014 8.82389 8.134C8.60389 8.25 8.32189 8.308 7.97789 8.308H7.22189V10H6.53789V5.83H7.97789C8.29789 5.83 8.56789 5.886 8.78789 5.998C9.01189 6.106 9.17789 6.254 9.28589 6.442C9.39789 6.63 9.45389 6.84 9.45389 7.072ZM7.97789 7.75C8.23789 7.75 8.43189 7.692 8.55989 7.576C8.68789 7.456 8.75189 7.288 8.75189 7.072C8.75189 6.616 8.49389 6.388 7.97789 6.388H7.22189V7.75H7.97789ZM11.4803 10.042C11.2003 10.042 10.9483 9.994 10.7243 9.898C10.5003 9.798 10.3243 9.658 10.1963 9.478C10.0683 9.298 10.0043 9.088 10.0043 8.848H10.7363C10.7523 9.028 10.8223 9.176 10.9463 9.292C11.0743 9.408 11.2523 9.466 11.4803 9.466C11.7163 9.466 11.9003 9.41 12.0323 9.298C12.1643 9.182 12.2303 9.034 12.2303 8.854C12.2303 8.714 12.1883 8.6 12.1043 8.512C12.0243 8.424 11.9223 8.356 11.7983 8.308C11.6783 8.26 11.5103 8.208 11.2943 8.152C11.0223 8.08 10.8003 8.008 10.6283 7.936C10.4603 7.86 10.3163 7.744 10.1963 7.588C10.0763 7.432 10.0163 7.224 10.0163 6.964C10.0163 6.724 10.0763 6.514 10.1963 6.334C10.3163 6.154 10.4843 6.016 10.7003 5.92C10.9163 5.824 11.1663 5.776 11.4503 5.776C11.8543 5.776 12.1843 5.878 12.4403 6.082C12.7003 6.282 12.8443 6.558 12.8723 6.91H12.1163C12.1043 6.758 12.0323 6.628 11.9003 6.52C11.7683 6.412 11.5943 6.358 11.3783 6.358C11.1823 6.358 11.0223 6.408 10.8983 6.508C10.7743 6.608 10.7123 6.752 10.7123 6.94C10.7123 7.068 10.7503 7.174 10.8263 7.258C10.9063 7.338 11.0063 7.402 11.1263 7.45C11.2463 7.498 11.4103 7.55 11.6183 7.606C11.8943 7.682 12.1183 7.758 12.2903 7.834C12.4663 7.91 12.6143 8.028 12.7343 8.188C12.8583 8.344 12.9203 8.554 12.9203 8.818C12.9203 9.03 12.8623 9.23 12.7463 9.418C12.6343 9.606 12.4683 9.758 12.2483 9.874C12.0323 9.986 11.7763 10.042 11.4803 10.042Z" fill="#A5A5A5"/>
</svg>
