<svg width="13" height="12" viewBox="0 0 13 12" fill="none" xmlns="http://www.w3.org/2000/svg">
<path d="M11.8294 4.48622H11.4216V2.03919C11.4216 1.93102 11.3786 1.82729 11.3022 1.7508C11.2257 1.67432 11.1219 1.63135 11.0138 1.63135H1.22566C1.12909 1.63293 1.03509 1.60018 0.960407 1.53894C0.885722 1.47769 0.835195 1.39193 0.817822 1.29692V1.1501C0.835195 1.05509 0.885722 0.969333 0.960407 0.908091C1.03509 0.846849 1.12909 0.8141 1.22566 0.815675H10.8425C10.9506 0.815675 11.0544 0.772707 11.1309 0.696222C11.2073 0.619738 11.2503 0.516003 11.2503 0.407838C11.2503 0.299672 11.2073 0.195937 11.1309 0.119453C11.0544 0.0429686 10.9506 0 10.8425 0H1.22566C0.901164 0 0.589959 0.128906 0.360506 0.358359C0.131052 0.587812 0.00214696 0.899017 0.00214696 1.22351C-0.000715652 1.27241 -0.000715652 1.32144 0.00214696 1.37033V9.75956C0.00374783 9.97915 0.0485859 10.1963 0.134101 10.3985C0.219616 10.6008 0.344133 10.7842 0.500542 10.9384C0.656952 11.0925 0.84219 11.2143 1.04568 11.2969C1.24917 11.3794 1.46693 11.4211 1.68652 11.4195H11.0138C11.1219 11.4195 11.2257 11.3765 11.3022 11.3C11.3786 11.2235 11.4216 11.1198 11.4216 11.0116V8.56459H11.8294C11.9376 8.56459 12.0413 8.52162 12.1178 8.44514C12.1943 8.36866 12.2373 8.26492 12.2373 8.15675V4.89405C12.2373 4.78589 12.1943 4.68215 12.1178 4.60567C12.0413 4.52918 11.9376 4.48622 11.8294 4.48622ZM10.6059 10.6038H1.68652C1.45968 10.606 1.24115 10.5185 1.07847 10.3604C0.915786 10.2023 0.822112 9.98637 0.817822 9.75956V2.39809C0.950206 2.43645 1.08796 2.45298 1.22566 2.44703H10.6059V4.48622H7.75106C7.21024 4.48622 6.69156 4.70106 6.30914 5.08348C5.92672 5.4659 5.71187 5.98458 5.71187 6.5254C5.71187 7.06623 5.92672 7.58491 6.30914 7.96733C6.69156 8.34975 7.21024 8.56459 7.75106 8.56459H10.6059V10.6038ZM11.4216 7.74892H7.75106C7.42657 7.74892 7.11536 7.62001 6.88591 7.39056C6.65646 7.1611 6.52755 6.8499 6.52755 6.5254C6.52755 6.20091 6.65646 5.8897 6.88591 5.66025C7.11536 5.4308 7.42657 5.30189 7.75106 5.30189H11.4216V7.74892Z" fill="#BBBBBB"/>
<path d="M9.16339 8.13709C9.50126 8.13709 9.77515 7.86319 9.77515 7.52533C9.77515 7.18747 9.50126 6.91357 9.16339 6.91357C8.82553 6.91357 8.55164 7.18747 8.55164 7.52533C8.55164 7.86319 8.82553 8.13709 9.16339 8.13709Z" fill="#BBBBBB"/>
</svg>
