<?xml version="1.0" encoding="UTF-8"?>
<svg width="1200pt" height="1200pt" version="1.1" viewBox="0 0 1200 1200" xmlns="http://www.w3.org/2000/svg">
 <g fill="#fff">
  <path d="m363.84 269.38c52.332 0 94.465 42.133 94.465 94.465s-42.133 94.465-94.465 94.465c-52.332 0-94.465-42.133-94.465-94.465s42.133-94.465 94.465-94.465z"/>
  <path d="m600 269.38c52.332 0 94.465 42.133 94.465 94.465s-42.133 94.465-94.465 94.465-94.465-42.133-94.465-94.465 42.133-94.465 94.465-94.465z"/>
  <path d="m836.16 269.38c52.332 0 94.465 42.133 94.465 94.465s-42.133 94.465-94.465 94.465c-52.332 0-94.465-42.133-94.465-94.465s42.133-94.465 94.465-94.465z"/>
  <path d="m363.84 505.54c52.332 0 94.465 42.133 94.465 94.465 0 52.332-42.133 94.465-94.465 94.465-52.332 0-94.465-42.133-94.465-94.465 0-52.332 42.133-94.465 94.465-94.465z"/>
  <path d="m600 505.54c52.332 0 94.465 42.133 94.465 94.465 0 52.332-42.133 94.465-94.465 94.465s-94.465-42.133-94.465-94.465c0-52.332 42.133-94.465 94.465-94.465z"/>
  <path d="m836.16 505.54c52.332 0 94.465 42.133 94.465 94.465 0 52.332-42.133 94.465-94.465 94.465-52.332 0-94.465-42.133-94.465-94.465 0-52.332 42.133-94.465 94.465-94.465z"/>
  <path d="m363.84 741.7c52.332 0 94.465 42.133 94.465 94.465 0 52.332-42.133 94.465-94.465 94.465-52.332 0-94.465-42.133-94.465-94.465 0-52.332 42.133-94.465 94.465-94.465z"/>
  <path d="m600 741.7c52.332 0 94.465 42.133 94.465 94.465 0 52.332-42.133 94.465-94.465 94.465s-94.465-42.133-94.465-94.465c0-52.332 42.133-94.465 94.465-94.465z"/>
  <path d="m836.16 741.7c52.332 0 94.465 42.133 94.465 94.465 0 52.332-42.133 94.465-94.465 94.465-52.332 0-94.465-42.133-94.465-94.465 0-52.332 42.133-94.465 94.465-94.465z"/>
 </g>
</svg>
