<?xml version="1.0" standalone="no"?>
<!DOCTYPE svg PUBLIC "-//W3C//DTD SVG 20010904//EN"
 "http://www.w3.org/TR/2001/REC-SVG-20010904/DTD/svg10.dtd">
<svg version="1.0" xmlns="http://www.w3.org/2000/svg"
 width="736.000000pt" height="736.000000pt" viewBox="0 0 736.000000 736.000000"
 preserveAspectRatio="xMidYMid meet">

<g transform="translate(0.000000,736.000000) scale(0.100000,-0.100000)"
fill="#fff" stroke="none">

<path d="M545 5598 c-3 -7 -4 -899 -3 -1983 l3 -1970 3123 -3 3122 -2 0 1985
0 1985 -3120 0 c-2487 0 -3122 -3 -3125 -12z m5865 -1468 l0 -1130 -242 2
-243 3 -2 1100 c-1 605 1 1112 4 1128 l5 27 239 0 239 0 0 -1130z m-4446 1104
c103 -26 169 -80 215 -174 l26 -55 0 -330 c0 -244 -3 -341 -13 -373 -15 -51
-81 -127 -117 -136 -27 -7 -34 -26 -10 -26 25 0 97 -72 119 -120 20 -42 21
-65 24 -370 4 -338 -2 -410 -38 -480 -26 -50 -97 -115 -155 -142 -50 -23 -51
-23 -567 -26 l-518 -3 0 1126 0 1125 486 0 c409 0 496 -3 548 -16z m1582 -5
c73 -27 136 -85 171 -158 28 -56 28 -57 31 -298 l4 -243 -236 0 -236 0 0 135
c0 160 17 147 -185 143 l-140 -3 -3 -676 -2 -676 31 -7 c40 -8 247 -8 277 0
l22 6 -2 192 -3 191 -102 3 -103 3 0 219 0 220 340 0 341 0 -3 -522 c-3 -513
-3 -524 -25 -570 -30 -64 -87 -124 -147 -156 l-51 -27 -415 0 -415 0 -50 27
c-75 39 -128 102 -154 181 -21 66 -21 74 -21 912 0 832 0 847 21 911 28 87 91
156 174 189 60 24 61 25 442 25 366 0 385 -1 439 -21z m1024 -21 c6 -24 17
-65 24 -93 8 -27 31 -120 51 -205 20 -85 41 -168 46 -185 5 -16 38 -151 75
-300 36 -148 69 -273 73 -277 9 -10 20 31 161 605 l123 497 274 0 273 0 0
-1125 0 -1125 -225 0 -225 0 -2 518 c0 284 0 527 1 540 4 46 -18 19 -33 -40
-8 -35 -25 -99 -36 -143 -11 -44 -31 -123 -44 -175 -13 -52 -58 -230 -100
-394 -42 -165 -76 -301 -76 -303 0 -1 -40 -3 -90 -3 -85 0 -90 1 -95 23 -3 12
-9 40 -14 62 -5 22 -35 141 -66 265 -32 124 -63 250 -70 280 -8 30 -34 136
-59 235 -25 99 -46 187 -46 197 0 10 -4 18 -10 18 -7 0 -10 -187 -10 -540 l0
-540 -230 0 -230 0 0 1118 c0 615 3 1122 7 1125 3 4 127 7 274 7 l268 0 11
-42z m1838 -2795 l-3 -408 -2735 0 -2735 0 -3 408 -2 407 2740 0 2740 0 -2
-407z"/>
<path d="M1405 4798 c-3 -8 -4 -110 -3 -228 l3 -215 163 -3 162 -2 -2 227 -3
228 -158 3 c-122 2 -159 0 -162 -10z"/>
<path d="M1400 3695 c0 -135 3 -245 8 -245 4 0 71 -2 150 -4 79 -3 150 -2 158
1 12 4 14 48 14 249 l0 244 -165 0 -165 0 0 -245z"/>
<path d="M2511 2575 c-17 -33 -37 -69 -46 -80 -14 -19 -15 -15 -13 58 l3 77
-55 0 -55 0 0 -220 0 -220 53 0 52 0 0 88 c1 79 2 85 15 68 8 -11 27 -50 42
-88 l28 -68 63 0 c60 0 72 6 53 26 -5 5 -32 56 -61 113 -44 86 -51 107 -41
122 6 11 31 55 55 99 42 76 44 80 23 81 -12 1 -36 2 -54 3 -30 2 -34 -2 -62
-59z"/>
<path d="M3944 2631 c-2 -2 -4 -26 -4 -52 l0 -49 45 7 45 6 0 -34 c1 -19 1
-98 1 -176 l0 -143 52 0 52 0 0 172 0 173 48 -2 47 -1 0 48 0 49 -141 3 c-77
2 -143 1 -145 -1z"/>
<path d="M4728 2633 l-28 -4 0 -220 0 -219 53 0 52 0 -3 97 c-4 112 2 113 44
3 15 -41 32 -81 37 -87 5 -8 31 -13 58 -13 l49 0 0 220 0 220 -52 0 -53 0 3
-97 c3 -112 -2 -111 -49 15 -18 45 -37 82 -45 82 -7 0 -18 2 -26 3 -7 2 -25 2
-40 0z"/>
<path d="M2760 2410 l0 -220 53 0 53 0 -4 66 c-6 86 15 84 43 -4 l20 -62 58 0
c31 0 57 2 57 4 0 2 -11 28 -25 58 -31 66 -31 66 0 102 23 27 25 37 25 123 0
91 -1 96 -29 124 -29 29 -31 29 -140 29 l-111 0 0 -220z m190 65 l0 -65 -50 0
-50 0 0 65 0 65 50 0 50 0 0 -65z"/>
<path d="M3240 2606 c0 -13 -22 -109 -50 -212 -27 -104 -50 -192 -50 -196 0
-5 25 -8 55 -8 l55 0 0 35 0 35 60 0 59 0 7 -35 c6 -35 6 -35 60 -35 30 0 54
2 54 4 0 2 -9 32 -19 67 -21 66 -65 238 -84 322 l-11 47 -68 0 c-65 0 -68 -1
-68 -24z m99 -228 c1 -13 -7 -18 -28 -18 -29 0 -29 0 -20 42 6 23 13 46 16 52
7 10 31 -47 32 -76z"/>
<path d="M3595 2410 l0 -220 53 0 52 0 0 86 0 85 53 -2 52 -3 0 54 0 54 -52
-3 -53 -2 0 41 0 42 78 -4 77 -3 3 48 3 47 -133 0 -133 0 0 -220z"/>
<path d="M4347 2602 l-27 -28 0 -164 0 -164 27 -28 c25 -26 32 -28 108 -28 79
0 82 1 113 33 l32 33 0 155 0 156 -30 32 c-29 30 -33 31 -113 31 -78 0 -85 -2
-110 -28z m163 -197 l0 -135 -50 0 -50 0 0 135 0 135 50 0 50 0 0 -135z"/>
</g>
</svg>
