<svg width="11" height="13" viewBox="0 0 11 13" fill="none" xmlns="http://www.w3.org/2000/svg">
<path d="M1.03695 12.3006H6.68443C6.93399 12.3004 7.17326 12.2113 7.34972 12.0528C7.52619 11.8943 7.62543 11.6795 7.62568 11.4554V10.1876H6.68443V11.4554H1.03695V1.31298H6.68443V2.58078H7.62568V1.31298C7.62543 1.08888 7.52619 0.874032 7.34972 0.715574C7.17326 0.557117 6.93399 0.467997 6.68443 0.467773H1.03695C0.787393 0.467997 0.548127 0.557117 0.371663 0.715574C0.195199 0.874032 0.0959523 1.08888 0.0957031 1.31298V11.4554C0.0959523 11.6795 0.195199 11.8943 0.371663 12.0528C0.548127 12.2113 0.787393 12.3004 1.03695 12.3006Z" fill="#ffffff"/>
<path d="M7.30842 8.43961L9.02286 6.83231H2.24731V5.93589H9.02286L7.30842 4.3286L7.98444 3.69482L10.853 6.3841L7.98444 9.07338L7.30842 8.43961Z" fill="#ffffff"/>
</svg>
