<?xml version="1.0" encoding="UTF-8" ?>
<!DOCTYPE svg PUBLIC "-//W3C//DTD SVG 1.1//EN" "http://www.w3.org/Graphics/SVG/1.1/DTD/svg11.dtd">
<svg  width="435pt" height="297pt" viewBox="0 0 1035 497" version="1.1" xmlns="http://www.w3.org/2000/svg">
<g id="f000000ff">
</g>
<g id="ffffffff">
<path fill="#ffffff" opacity="1.00" d=" M 245.44 4.65 C 248.61 2.76 250.63 6.58 252.34 8.59 C 362.37 146.24 472.53 283.79 582.55 421.44 C 584.81 423.40 583.10 427.59 580.05 427.14 C 527.37 427.20 474.68 427.16 422.00 427.16 C 417.78 427.21 413.74 425.11 411.15 421.82 C 356.49 353.53 301.86 285.21 247.20 216.91 C 244.88 214.15 243.68 210.58 243.83 206.99 C 243.83 141.01 243.85 75.02 243.81 9.04 C 243.84 7.48 243.78 5.46 245.44 4.65 Z" />
<path fill="#ffffff" opacity="1.00" d=" M 754.32 4.33 C 756.57 3.48 759.05 5.56 758.72 7.92 C 758.80 73.93 758.71 139.94 758.76 205.95 C 758.91 209.69 758.09 213.56 755.66 216.50 C 739.05 237.28 722.42 258.05 705.81 278.82 C 703.04 282.42 698.51 284.41 693.98 284.18 C 641.65 284.13 589.31 284.21 536.98 284.14 C 533.89 284.62 532.13 280.45 534.41 278.44 C 606.98 187.65 679.61 96.89 752.22 6.12 C 752.77 5.34 753.47 4.74 754.32 4.33 Z" />








</g>
</svg>
